<?xml version="1.0" standalone="no"?>
<!DOCTYPE svg PUBLIC "-//W3C//DTD SVG 20010904//EN"
 "http://www.w3.org/TR/2001/REC-SVG-20010904/DTD/svg10.dtd">
<svg version="1.0" xmlns="http://www.w3.org/2000/svg"
 width="298.000000pt" height="298.000000pt" viewBox="0 0 298.000000 298.000000"
 preserveAspectRatio="xMidYMid meet">
<metadata>
Created by potrace 1.11, written by Peter Selinger 2001-2013
</metadata>
<g transform="translate(0.000000,298.000000) scale(0.100000,-0.100000)"
fill="#000000" stroke="none">
<path d="M2139 2716 c-3 -4 -144 -29 -313 -57 l-307 -51 -609 51 c-335 28
-615 48 -624 45 -19 -7 -18 0 -66 -899 -22 -412 -43 -780 -47 -816 -12 -98
-20 -94 272 -124 117 -12 174 -22 181 -32 7 -8 15 -33 18 -57 4 -24 13 -51 20
-61 15 -21 20 -21 396 50 135 26 286 53 335 62 50 9 96 20 103 26 7 6 12 24
10 41 -5 49 -35 47 -348 -14 -25 -4 -83 -15 -130 -24 -47 -9 -130 -25 -185
-36 -55 -11 -103 -16 -106 -12 -4 4 -25 115 -48 247 -24 132 -60 339 -81 460
-22 121 -49 272 -60 335 -11 63 -31 176 -44 250 -34 189 -40 240 -29 240 12 0
1566 258 1599 265 20 4 22 -2 33 -73 7 -42 19 -111 27 -152 13 -74 40 -221 69
-390 80 -455 98 -546 104 -553 5 -5 24 -7 42 -5 43 4 47 25 24 140 -25 134
-32 173 -105 593 -38 220 -75 426 -81 458 -12 56 -38 105 -50 93z m-1404 -136
c197 -16 365 -30 373 -30 51 0 -33 -17 -329 -66 -376 -62 -405 -68 -413 -90
-3 -9 9 -102 28 -207 19 -106 53 -295 75 -422 23 -126 45 -255 51 -285 32
-177 80 -452 86 -493 l6 -48 -48 6 c-27 4 -102 12 -166 19 -65 7 -121 15 -124
19 -4 3 8 259 25 569 17 310 36 664 42 788 9 196 18 270 32 270 2 0 165 -13
362 -30z"/>
<path d="M1515 2159 c-42 -10 -100 -55 -130 -101 l-17 -27 -39 19 c-47 24
-153 27 -205 5 -48 -20 -108 -85 -122 -132 -25 -83 -8 -175 44 -236 24 -28
148 -116 166 -117 7 0 182 -103 257 -152 25 -15 48 -28 53 -28 15 0 39 33 100
140 33 58 75 128 93 155 55 84 105 196 105 235 0 57 -28 137 -61 175 -34 38
-121 76 -172 74 -18 -1 -50 -5 -72 -10z m166 -74 c72 -47 109 -150 76 -212
-33 -63 -54 -99 -68 -123 -48 -76 -139 -233 -139 -238 0 -4 -9 -18 -19 -31
l-19 -24 -88 53 c-49 29 -114 67 -144 83 -30 16 -62 35 -70 42 -8 6 -36 24
-61 38 -86 49 -122 121 -105 212 7 38 72 110 113 126 47 18 116 11 155 -16 55
-38 80 -33 114 20 63 100 167 129 255 70z"/>
<path d="M2020 1376 c-30 -7 -71 -20 -90 -28 -59 -26 -130 -98 -165 -168 -48
-96 -52 -155 -21 -287 7 -32 58 -103 101 -140 34 -31 39 -53 11 -53 -19 0
-138 -63 -170 -90 -74 -65 -98 -90 -144 -153 -28 -37 -58 -93 -68 -125 -10
-31 -20 -59 -23 -62 -3 -3 -7 -14 -8 -25 -1 -11 -5 -46 -8 -77 l-7 -58 56 0
56 0 0 38 c0 130 91 283 231 388 83 63 128 82 247 105 136 26 338 -16 431 -90
22 -17 42 -31 45 -31 14 0 98 -94 131 -149 42 -68 75 -166 75 -222 l0 -39 58
0 58 0 -13 78 c-25 149 -82 265 -173 352 -84 81 -98 91 -185 134 l-86 42 53
55 c136 138 138 359 4 494 -62 61 -112 90 -197 110 -75 17 -124 18 -199 1z
m223 -115 c99 -48 167 -149 167 -246 0 -88 -73 -190 -168 -237 -69 -34 -188
-32 -256 4 -55 30 -109 85 -134 137 -23 48 -23 154 0 202 34 71 117 140 193
160 54 14 147 5 198 -20z"/>
</g>
</svg>
